<svg xmlns="http://www.w3.org/2000/svg" width="178.176" height="48.929" viewBox="0 0 178.176 48.929"><defs><clipPath id="a"><path d="M0 0h178.176v48.93H0Z"/></clipPath></defs><g fill="#fff" clip-path="url(#a)"><path d="M51.307 33.115V18.718c0-.876-.03-2.288-.113-3.389h5.11l5.25 14.906L66.58 15.33h5.194a50 50 0 0 0-.113 3.388v14.397c0 .874.029 2.314.113 3.387h-4.49c.086-1.073.115-2.513.115-3.388V23.094l-4.63 13.41h-2.57l-4.94-13.834v10.446c0 .874.029 2.314.113 3.387h-4.178c.084-1.073.113-2.513.113-3.388M75.342 33.623l5.307-16.092q.382-1.1.508-2.201h5.392l6.042 18.293c.282.819.733 1.976 1.185 2.879h-5.081a16 16 0 0 0-.706-2.88l-.198-.62h-7.904l-.198.62c-.31.904-.564 1.892-.706 2.88h-4.827c.452-.903.904-2.06 1.186-2.88m11.348-4.121-2.823-9.91-2.88 9.91ZM96.15 33.115V18.718c0-.933-.027-2.26-.112-3.389h6.776c6.746 0 10.332 3.698 10.332 10.473 0 6.917-3.586 10.7-10.332 10.7h-6.776c.085-1.073.113-2.513.113-3.388m4.235-14.284v14.172h2.428c4.178 0 6.069-2.26 6.069-7.058 0-4.8-1.891-7.114-6.07-7.114ZM116.311 33.115V18.718c0-.876-.028-2.288-.113-3.389h7.143c5.364 0 8.243 2.371 8.243 6.522 0 2.907-1.497 4.714-3.952 5.618 1.61.93 2.202 2.511 3.246 5.477 1.412 4.008 3.416 5.476 7.114 5.476 1.243 0 2.061-.085 2.767-.282l-.226 3.444c-.79.31-1.58.423-2.597.423-6.465 0-8.978-2.54-11.038-7.875-1.58-4.094-2.343-4.941-4.658-4.941h-1.694v3.924c0 .874.028 2.314.113 3.387h-4.46c.084-1.073.112-2.513.112-3.388m4.235-14.284v6.86h2.71c2.57 0 4.093-1.186 4.093-3.472 0-2.344-1.27-3.389-4.093-3.389Z"/><path d="M135.399 31.49V18.718c0-.875-.03-2.287-.113-3.387h4.46a49 49 0 0 0-.113 3.387V31.49c0 .875.029 2.315.114 3.388h-4.461c.084-1.073.113-2.513.113-3.388M143.7 33.115V18.718c0-.933-.03-2.26-.113-3.389h6.775c6.747 0 10.333 3.698 10.333 10.473 0 6.917-3.586 10.7-10.333 10.7h-6.775c.084-1.073.113-2.513.113-3.388m4.234-14.284v14.172h2.428c4.179 0 6.07-2.26 6.07-7.058 0-4.8-1.891-7.114-6.07-7.114ZM18.222 15.337v19.19c0 5.682 3.934 8.923 11.642 8.923s11.64-3.241 11.64-8.923v-19.19Zm20.32 1.936c-1.985 3.559-5.817 5.804-11.047 6.308-2.974.286-5.89-.001-7.32-.191v-6.117ZM25.02 40.94c-3.184-.943-4.846-3.122-4.846-7.132v-8.574a31 31 0 0 0 4.846.383Zm4.854.647q-1.597-.001-2.932-.205l-.004-8.415s3.042 2.026 3.285 1.968l1.06-.153.001.326c0 .392.028.736.074 1.036.22 1.394.86 1.859 1.16 2.002l-.239.288c-.116.139-.012.5.1.729l.671 2.179a19 19 0 0 1-3.176.245m9.693-7.78c0 2.428-.599 4.18-1.769 5.395.356-.656.45-1.322.1-1.895L36.421 35.1l-1.766-4.37-.129-1.781.395-.193c.277-.13.421-.453.316-.713l-.117-.304c-.102-.267-.442-.441-.755-.391l-.574.088-.84-.581a.8.8 0 0 0-.51-.103l-.517.089-1.196-.821a.3.3 0 0 0-.396.047l-.697.844a.54.54 0 0 0-.025.625l1.065 1.503v2.687l-1.225.209c-.416 0-2.49-.602-2.49-1.09v-5.291q.346-.023.696-.056c5.416-.511 9.498-2.641 11.91-6.19ZM19.287 11.149l.283.889a.07.07 0 0 0 .081.047l.912-.199c.067-.015.113.065.067.116l-.628.689a.07.07 0 0 0 0 .095l.628.689c.046.051 0 .131-.067.116l-.912-.199a.07.07 0 0 0-.081.048l-.284.888a.07.07 0 0 1-.134 0l-.283-.888a.07.07 0 0 0-.081-.048l-.912.199c-.067.015-.113-.065-.067-.116l.628-.689a.07.07 0 0 0 0-.095l-.628-.689c-.046-.051 0-.131.067-.116l.912.199a.07.07 0 0 0 .081-.047l.284-.889a.07.07 0 0 1 .134 0M22.834 11.149l.283.889a.07.07 0 0 0 .082.047l.911-.199c.067-.015.113.065.067.116l-.628.689a.07.07 0 0 0 0 .095l.628.689c.046.051 0 .131-.067.116l-.91-.199a.07.07 0 0 0-.083.048l-.283.888a.07.07 0 0 1-.134 0l-.283-.888a.07.07 0 0 0-.082-.048l-.91.199c-.068.015-.114-.065-.068-.116l.628-.689a.07.07 0 0 0 0-.095l-.628-.689c-.046-.051 0-.131.067-.116l.911.199a.07.07 0 0 0 .082-.047l.283-.889a.07.07 0 0 1 .134 0M26.382 11.149l.283.889a.07.07 0 0 0 .082.047l.91-.199c.068-.015.114.065.068.116l-.628.689a.07.07 0 0 0 0 .095l.628.689c.046.051 0 .131-.067.116l-.911-.199a.07.07 0 0 0-.082.048l-.283.888a.07.07 0 0 1-.134 0l-.283-.888a.07.07 0 0 0-.082-.048l-.911.199c-.067.015-.113-.065-.067-.116l.628-.689a.07.07 0 0 0 0-.095l-.628-.689c-.046-.051 0-.131.067-.116l.91.199a.07.07 0 0 0 .083-.047l.283-.889a.07.07 0 0 1 .134 0M29.93 11.149l.283.889a.07.07 0 0 0 .082.047l.91-.199c.068-.015.114.065.068.116l-.628.689a.07.07 0 0 0 0 .095l.628.689c.046.051 0 .131-.067.116l-.911-.199a.07.07 0 0 0-.082.048l-.283.888a.07.07 0 0 1-.134 0l-.283-.888a.07.07 0 0 0-.082-.048l-.911.199c-.067.015-.113-.065-.067-.116l.628-.689a.07.07 0 0 0 0-.095l-.628-.689c-.046-.051 0-.131.067-.116l.91.199a.07.07 0 0 0 .083-.047l.283-.889a.07.07 0 0 1 .134 0M33.477 11.149l.283.889a.07.07 0 0 0 .082.047l.911-.199c.067-.015.113.065.067.116l-.628.689a.07.07 0 0 0 0 .095l.628.689c.046.051 0 .131-.067.116l-.91-.199a.07.07 0 0 0-.083.048l-.283.888a.07.07 0 0 1-.134 0l-.283-.888a.07.07 0 0 0-.082-.048l-.91.199c-.068.015-.114-.065-.068-.116l.628-.689a.07.07 0 0 0 0-.095L32 12.002c-.046-.051 0-.131.067-.116l.911.199a.07.07 0 0 0 .082-.047l.283-.889a.07.07 0 0 1 .134 0M37.025 11.149l.283.889a.07.07 0 0 0 .082.047l.91-.199c.068-.015.114.065.068.116l-.628.689a.07.07 0 0 0 0 .095l.628.689c.046.051 0 .131-.067.116l-.911-.199a.07.07 0 0 0-.082.048l-.283.888a.07.07 0 0 1-.134 0l-.283-.888a.07.07 0 0 0-.082-.048l-.911.199c-.067.015-.113-.065-.067-.116l.628-.689a.07.07 0 0 0 0-.095l-.628-.689c-.046-.051 0-.131.067-.116l.91.199a.07.07 0 0 0 .083-.047l.283-.889a.07.07 0 0 1 .134 0M40.573 11.149l.283.889a.07.07 0 0 0 .082.047l.91-.199c.068-.015.114.065.068.116l-.628.689a.07.07 0 0 0 0 .095l.628.689c.046.051 0 .131-.067.116l-.911-.199a.07.07 0 0 0-.082.048l-.283.888a.07.07 0 0 1-.134 0l-.283-.888a.07.07 0 0 0-.082-.048l-.911.199c-.067.015-.113-.065-.067-.116l.628-.689a.07.07 0 0 0 0-.095l-.628-.689c-.046-.051 0-.131.067-.116l.91.199a.07.07 0 0 0 .083-.047l.283-.889a.07.07 0 0 1 .134 0M41.245 5.49l-.016.056c0 .003-.099.336-.203.506-.15.249-.587.492-.903.469v1.14h.025c.213 0 .45-.046.657-.107v.418c0 .3-.085 1.004-.866 1.004-.35 0-.566-.222-.69-.432a.83.83 0 1 0-1.45 0c-.123.21-.338.432-.69.432-.78 0-.866-.703-.866-1.004v-.546q.05 0 .095.019c.335.143.684.21.948.207V6.51c-.319.022-.753-.22-.903-.47-.11-.18-.175-.312-.2-.494l-.01-.067h-1.077l-.016.056a2.7 2.7 0 0 1-.203.506c-.15.25-.587.493-.903.469v1.14c.308.007.68-.094.923-.196a.3.3 0 0 1 .127-.028v.545c0 .3-.08 1.004-.86 1.004-.352 0-.566-.22-.69-.43a.83.83 0 0 0-.723-1.234.83.83 0 0 0-.726 1.229c-.124.212-.338.435-.692.435-.78 0-.865-.703-.865-1.004l.005-.451.001-.095h.006q.049 0 .093.019c.335.143.685.21.948.207V6.51c-.319.022-.753-.22-.903-.47-.11-.18-.174-.312-.2-.494l-.01-.067h-1.091l-.009.067c-.027.182-.09.315-.2.495-.15.25-.585.49-.904.469v1.14c.263.005.613-.063.947-.206a.3.3 0 0 1 .094-.02h.006l.001.096.005.45c0 .302-.084 1.005-.865 1.005-.354 0-.568-.223-.693-.435a.83.83 0 1 0-1.448.005c-.124.21-.338.43-.689.43-.78 0-.86-.703-.86-1.004v-.545a.3.3 0 0 1 .126.028c.243.102.614.203.923.197V6.51c-.316.024-.753-.22-.903-.47-.104-.17-.202-.501-.204-.505l-.015-.056h-1.076l-.01.067c-.027.182-.09.315-.2.495-.15.25-.585.49-.904.469v1.14c.264.005.613-.063.948-.206a.3.3 0 0 1 .094-.02v.547c0 .3-.084 1.004-.865 1.004-.352 0-.567-.222-.69-.432a.83.83 0 0 0-1.311-.989.83.83 0 0 0-.139.989c-.125.21-.339.432-.69.432-.78 0-.866-.703-.866-1.004v-.418c.207.06.444.107.656.107h.026V6.52c-.316.023-.753-.22-.903-.47-.104-.17-.202-.502-.204-.505l-.015-.056h-.999v2.243c0 1.673.848 2.67 2.267 2.67.618 0 1.23-.368 1.453-.518.223.15.834.519 1.452.519.643 0 1.215-.38 1.435-.546.222.167.792.546 1.436.546.618 0 1.23-.37 1.452-.52.224.15.836.52 1.454.52.641 0 1.21-.377 1.432-.544.223.167.792.544 1.433.544.618 0 1.23-.37 1.453-.52.223.15.834.52 1.452.52.645 0 1.215-.38 1.436-.546.221.167.793.546 1.436.546.617 0 1.23-.37 1.452-.52.223.15.835.52 1.453.52 1.42 0 2.267-.998 2.267-2.671V5.489Z"/></g></svg>